<?xml version="1.0" encoding="UTF-8" standalone="no"?>
<svg
   id="svg_root"
   viewBox="0 0 300 150"
   version="1.1"
   width="300"
   height="150"
   xmlns="http://www.w3.org/2000/svg"
   xmlns:svg="http://www.w3.org/2000/svg">
  <defs
     id="defs15" />
  <rect
     id="svg_frame"
     width="300"
     height="300"
     style="fill:none;stroke-width:10"
     stroke="none"
     x="0"
     y="0" />
  <!-- <circle id="svg_circle_frame" cx="150" cy="150" r="148" style="fill:none;stroke-width:5" stroke="black"/> -->
  <g
     id="svg_subtext"
     fill="#00563b"
     transform="matrix(0.5,0,0,0.5,154,215)">
    <g
       id="g841"
       transform="translate(0,-152.18341)">
      <g
         transform="matrix(2,0,0,2,-289.22746,-350)"
         id="g7">
        <g
           transform="matrix(1.3333333,0,0,-1.3333333,0,199.99999)"
           id="g10">
          <g
             transform="scale(0.095)"
             id="g4">
            <path
               id="svg_logo"
               fill="#00563b"
               style="fill-opacity:1;fill-rule:nonzero;stroke:none;stroke-width:0.799785"
               d="m 1735.94,608.49687 c 0,38.89593 40.941,53.21687 107.491,60.38695 55.2652,6.13914 99.2853,15.35507 127.9496,33.7789 v -49.13077 c 0,-58.64022 -49.3706,-87.16455 -115.2809,-93.67799 -26.8888,2.49933 -55.0253,4.84269 -84.2414,6.98213 -22.7299,8.66966 -35.9183,23.40009 -35.9183,41.66078 z M 461.48704,591.09515 h 283.55808 l 23.26574,-68.80948 C 646.26531,500.07325 524.76681,470.81552 407.55436,433.93505 Z M 602.76101,1008.7364 702.04709,716.99567 H 503.45974 Z M 1233.3232,862.35414 c 74.732,0 135.1237,-67.56661 135.1237,-151.49682 0,-59.35602 -31.7914,-110.48307 -77.6991,-134.22627 -34.5746,-1.15649 -69.5972,-2.74967 -104.9637,-4.81151 -51.1783,20.68164 -87.5764,73.93291 -87.5764,139.03778 0,85.98246 60.3917,151.49682 135.1155,151.49682 z m 864.1035,-333.2423 c -0.072,1.93708 -0.1439,3.85896 -0.1439,5.67047 v 274.34536 c 0,41.96311 -16.3717,180.15792 -230.3141,180.15792 -138.1948,0 -234.4248,-74.7271 -247.7333,-175.0441 h 135.1316 c 12.2848,45.04468 67.5659,66.5389 115.6809,66.5389 60.3838,0 96.2061,-22.52513 96.2061,-50.15851 0,-42.98843 -62.4392,-53.23607 -150.4715,-61.42107 -116.6886,-10.23163 -215.9899,-40.94257 -215.9899,-159.68821 0,-11.79363 1.1837,-22.90024 3.2552,-33.4598 -32.3513,1.17169 -65.5504,2.03066 -99.4852,2.53052 V 1210.3941 H 1368.4469 V 925.81466 c -40.941,38.90154 -94.1826,61.42347 -155.5981,61.42347 -137.1711,0 -250.79646,-118.73604 -250.79646,-275.36588 0,-58.3403 16.0277,-111.482 43.24426,-155.14225 -33.88676,-3.7182 -67.91766,-7.96666 -102.02046,-12.74697 L 688.73788,1159.2078 H 517.79029 L 245.16046,376.71605 C 165.53549,345.41168 88.946415,310.13957 16.762722,270.71018 366.24067,423.18755 1228.0367,629.60079 2203.4541,503.15082 c -4.6546,5.16981 -42.4765,15.02716 -106.0274,25.96102" />
          </g>
        </g>
      </g>
      <path
         d="m 23,-51 c -10,0 -18,6 -18,15 0,9 7,13 17,15 7,2 10,4 10,8 0,4 -4,7 -9,7 -5,0 -9,-3 -10,-9 H 3 c 1,11 9,16 21,16 9,0 18,-5 18,-15 0,-8 -5,-13 -16,-15 -8,-2 -10,-4 -10,-8 0,-4 3,-6 7,-6 5,0 8,3 8,8 h 10 c -1,-9 -6,-16 -18,-16 z m 60,31 c 0,-10 -6,-19 -18,-19 -12,0 -19,8 -19,20 0,13 8,20 18,20 9,0 17,-5 19,-13 H 73 c -1,4 -4,6 -8,6 -5,0 -9,-2 -9,-11 h 27 c 0,-1 0,-2 0,-3 z M 65,-32 c 4,0 7,3 8,9 H 56 c 1,-6 4,-9 9,-9 z m 47,32 h 10 c -1,-4 -1,-7 -1,-10 v -12 c 0,-2 0,-4 0,-6 -1,-7 -5,-11 -15,-11 -10,0 -17,5 -17,13 h 10 c 0,-4 2,-6 6,-6 4,0 6,2 6,4 0,2 0,3 0,4 v 1 h -2 c -14,0 -21,4 -21,13 0,7 5,11 12,11 4,0 7,-1 10,-3 l 1,-4 z m -8,-6 c -4,0 -6,-2 -6,-5 0,-5 5,-7 13,-6 v 3 c 0,5 -3,8 -7,8 z m 46,-33 c -2,0 -5,1 -7,2 l -3,6 v -7 H 130 V 0 h 10 v -18 c 0,-10 4,-14 13,-13 v -8 c -1,0 -2,0 -3,0 z m 24,0 c -11,0 -19,7 -19,20 0,13 8,20 18,20 10,0 17,-5 18,-14 h -10 c -1,5 -3,7 -7,7 -5,0 -9,-4 -9,-14 0,-8 4,-12 9,-12 4,0 7,2 8,8 h 9 c 0,-9 -7,-15 -17,-15 z m 59,10 c 0,-6 -5,-10 -13,-10 -4,0 -7,0 -9,2 l -3,5 V -53 H 198 V 0 h 10 v -17 c 0,-11 4,-15 8,-15 5,0 7,2 8,6 0,2 0,4 0,6 V 0 h 10 v -22 c 0,-3 0,-5 -1,-7 z"
         id="path9" />
    </g>
  </g>
</svg>
